<svg width="16" height="15" viewBox="0 0 16 15" fill="none" xmlns="http://www.w3.org/2000/svg">
  <path d="M2.22517 0.310985C2.03657 0.128827 1.78397 0.0280328 1.52177 0.0303112C1.25957 0.0325897 1.00876 0.137759 0.823352 0.323167C0.637944 0.508575 0.532775 0.759387 0.530497 1.02158C0.528218 1.28378 0.629013 1.53638 0.811171 1.72499L6.58617 7.49998L0.810171 13.275C0.714661 13.3672 0.638478 13.4776 0.586069 13.5996C0.53366 13.7216 0.506074 13.8528 0.504921 13.9856C0.503767 14.1184 0.529068 14.25 0.579349 14.3729C0.62963 14.4958 0.703883 14.6075 0.797776 14.7014C0.891668 14.7953 1.00332 14.8695 1.12622 14.9198C1.24911 14.9701 1.38079 14.9954 1.51357 14.9942C1.64635 14.9931 1.77757 14.9655 1.89958 14.9131C2.02158 14.8607 2.13192 14.7845 2.22417 14.689L8.00017 8.91398L13.7752 14.689C13.9638 14.8711 14.2164 14.9719 14.4786 14.9697C14.7408 14.9674 14.9916 14.8622 15.177 14.6768C15.3624 14.4914 15.4676 14.2406 15.4698 13.9784C15.4721 13.7162 15.3713 13.4636 15.1892 13.275L9.41417 7.49998L15.1892 1.72499C15.3713 1.53638 15.4721 1.28378 15.4698 1.02158C15.4676 0.759387 15.3624 0.508575 15.177 0.323167C14.9916 0.137759 14.7408 0.0325897 14.4786 0.0303112C14.2164 0.0280328 13.9638 0.128827 13.7752 0.310985L8.00017 6.08599L2.22517 0.309985V0.310985Z" fill="#ED7100" />
</svg>
